<svg xmlns="http://www.w3.org/2000/svg" width="20.401" height="18" viewBox="0 0 20.401 18"><defs><style>.a{fill:#152e3e;}</style></defs><g transform="translate(0 -30.136)"><g transform="translate(0 30.136)"><g transform="translate(0 0)"><path class="a" d="M84.364,317.615H81.929a.8.8,0,0,0,0,1.6h2.435a.8.8,0,0,0,0-1.6Z" transform="translate(-77.898 -306.16)"/><path class="a" d="M87.757,237.485H81.93a.8.8,0,1,0,0,1.6h5.827a.8.8,0,1,0,0-1.6Z" transform="translate(-77.899 -229.223)"/><path class="a" d="M87.757,157.355H81.93a.8.8,0,1,0,0,1.6h5.827a.8.8,0,1,0,0-1.6Z" transform="translate(-77.899 -152.286)"/><path class="a" d="M10.7,31.136h-7.5A3.2,3.2,0,0,0,0,34.329V45.9A3.193,3.193,0,0,0,3.193,49.1h0l7.5,0A3.2,3.2,0,0,0,13.889,45.9V34.329A3.2,3.2,0,0,0,10.7,31.136Zm1.6,3.193V45.9a1.6,1.6,0,0,1-1.6,1.6l-7.5,0h0a1.6,1.6,0,0,1-1.6-1.6V34.329a1.6,1.6,0,0,1,1.6-1.6h7.5a1.6,1.6,0,0,1,1.6,1.6Z" transform="translate(0 -31.096)"/><path class="a" d="M395.629,41.75h0a.8.8,0,0,0,.8-.8l0-8.422a2.395,2.395,0,0,0-4.789,0L391.634,45a.8.8,0,0,0,.135.445l1.547,2.31a.8.8,0,0,0,.653.354h.011a.8.8,0,0,0,.651-.337l1.647-2.323a.8.8,0,1,0-1.3-.923L394,45.9l-.767-1.146.006-10.267h1.6l0,6.465A.8.8,0,0,0,395.629,41.75Zm-2.392-8.86v-.359a.8.8,0,0,1,1.6,0v.36Z" transform="translate(-376.029 -30.136)"/></g></g></g></svg>