<svg xmlns="http://www.w3.org/2000/svg" width="15.377" height="17.158" viewBox="0 0 15.377 17.158"><defs><style>.a{fill:#152e3e;}</style></defs><g transform="translate(0)"><path class="a" d="M114.744,200.67a.672.672,0,0,0-.67-.67h-6.9a.67.67,0,0,0,0,1.341h6.9A.672.672,0,0,0,114.744,200.67Z" transform="translate(-103.822 -193.298)"/><path class="a" d="M107.17,280a.67.67,0,0,0,0,1.341h4.192a.67.67,0,0,0,0-1.341Z" transform="translate(-103.822 -270.617)"/><path class="a" d="M31.523,15.818H29.281a1.34,1.34,0,0,1-1.34-1.34V2.681a1.34,1.34,0,0,1,1.34-1.34h8.241a1.34,1.34,0,0,1,1.34,1.34V6.8a.67.67,0,1,0,1.34,0V2.681A2.685,2.685,0,0,0,37.522,0H29.281A2.685,2.685,0,0,0,26.6,2.681v11.8a2.685,2.685,0,0,0,2.681,2.681h2.242a.67.67,0,0,0,0-1.34Z" transform="translate(-26.6)"/><path class="a" d="M250.962,272.638a2.01,2.01,0,0,0-2.842,0l-3.683,3.67a.662.662,0,0,0-.168.278l-.8,2.637a.668.668,0,0,0,.64.865.632.632,0,0,0,.178-.023l2.7-.751a.67.67,0,0,0,.295-.171l3.673-3.666A2,2,0,0,0,250.962,272.638Zm-4.494,5.436-1.361.375.4-1.31,2.483-2.476.948.948Zm3.546-3.542-.131.131-.948-.948.131-.131a.671.671,0,1,1,.948.948Z" transform="translate(-236.173 -262.933)"/><path class="a" d="M114.074,120h-6.9a.67.67,0,1,0,0,1.34h6.9a.67.67,0,1,0,0-1.34Z" transform="translate(-103.822 -115.979)"/></g></svg>